<svg width="16" height="14" viewBox="0 0 16 14" fill="none" xmlns="http://www.w3.org/2000/svg">
<path fill-rule="evenodd" clip-rule="evenodd" d="M15.7515 3.17655C15.4486 2.69862 14.9236 2.41379 14.3475 2.41379H3.78208L3.27279 0.592988C3.17457 0.242988 2.84853 0 2.47626 0H0.825421C0.368963 0 0 0.36046 0 0.804598C0 1.24874 0.368963 1.6092 0.825421 1.6092H1.84564L4.15599 9.86678C4.25422 10.2168 4.58026 10.4598 4.95253 10.4598H12.3813C12.6941 10.4598 12.9797 10.2876 13.1201 10.0148L15.8241 4.7423C16.0825 4.23943 16.0544 3.65448 15.7515 3.17655ZM11.8712 8.85057H5.58315L4.23193 4.02299H14.3475L11.8712 8.85057Z" fill="#7CBCF6"/>
<path d="M4.53998 11.5862C3.85653 11.5862 3.30185 12.1261 3.30185 12.7931C3.30185 13.4601 3.85653 14 4.53998 14C5.22343 14 5.77811 13.4601 5.77811 12.7931C5.77811 12.1261 5.22343 11.5862 4.53998 11.5862Z" fill="#7CBCF6"/>
<path d="M11.5561 12.7931C11.5561 12.1261 12.1107 11.5862 12.7942 11.5862C13.4776 11.5862 14.0323 12.1261 14.0323 12.7931C14.0323 13.4601 13.4776 14 12.7942 14C12.1107 14 11.5561 13.4601 11.5561 12.7931Z" fill="#7CBCF6"/>
</svg>
