<svg width="62" height="24" viewBox="0 0 62 24" fill="none" xmlns="http://www.w3.org/2000/svg">
<path d="M33.775 8.96H30.42L30.31 11.16H30.332C30.728 10.94 31.179 10.83 31.685 10.83C32.4477 10.83 33.0417 11.0463 33.467 11.479C33.8923 11.9117 34.105 12.5203 34.105 13.305C34.105 14.229 33.8447 14.9293 33.324 15.406C32.8033 15.8753 32.037 16.11 31.025 16.11C30.2697 16.11 29.573 15.945 28.935 15.615L29.21 14.625C29.8627 14.955 30.4677 15.12 31.025 15.12C32.2717 15.12 32.895 14.515 32.895 13.305C32.895 12.2857 32.4183 11.776 31.465 11.776C30.9223 11.776 30.4823 11.9373 30.145 12.26H29.1L29.32 7.97H33.775V8.96ZM35.8087 7.97H41.0887V8.96C40.4214 10.0453 39.842 11.1453 39.3507 12.26C38.8667 13.3673 38.4194 14.614 38.0087 16H36.7437C37.565 13.4333 38.6284 11.094 39.9337 8.982V8.96H35.8087V7.97ZM51.327 11.82L49.677 14.438H48.698L47.048 11.82H47.026V16H45.915V10.28H47.191L49.182 13.613H49.193L51.184 10.28H52.471V16H51.338V11.82H51.327ZM59.4696 11.82L57.8196 14.438H56.8406L55.1906 11.82H55.1686V16H54.0576V10.28H55.3336L57.3246 13.613H57.3356L59.3266 10.28H60.6136V16H59.4806V11.82H59.4696Z" fill="#7CBCF6"/>
<path d="M12 8.84259C14.4933 8.84259 16.4 7.87159 16.4 6.60185C16.4 5.33211 14.4933 4.36111 12 4.36111C9.50665 4.36111 7.6 5.33211 7.6 6.60185C7.6 7.87159 9.50665 8.84259 12 8.84259ZM12 5.10804C14.09 5.10804 15.6667 5.8923 15.6667 6.60185C15.6667 7.31141 14.09 8.09566 12 8.09566C9.91 8.09566 8.33335 7.31141 8.33335 6.60185C8.33335 5.8923 9.91 5.10804 12 5.10804Z" fill="#7CBCF6"/>
<path d="M12 1C5.84 1 1 3.46482 1 6.60185V17.3981C1 20.5352 5.84 23 12 23H17.17C17.5 23 17.7567 22.8133 17.8667 22.5145C17.8987 22.3838 17.8957 22.253 17.8606 22.1316C21.089 21.1279 23 19.3805 23 17.3981V6.60185C23 3.46482 18.16 1 12 1ZM12 1.74693C17.5733 1.74693 22.2667 3.98767 22.2667 6.60185C22.2667 9.21604 17.5733 11.4568 12 11.4568C6.42665 11.4568 1.73335 9.21604 1.73335 6.60185C1.73335 3.98767 6.42665 1.74693 12 1.74693ZM12 22.2531C6.42665 22.2531 1.73335 20.0123 1.73335 17.3981V8.65585C2.50717 9.68226 3.85536 10.5556 5.58661 11.179C5.59314 11.1814 5.59972 11.1837 5.60629 11.186C5.66864 11.2084 5.73146 11.2304 5.7948 11.2521C5.80356 11.2552 5.81224 11.2582 5.82101 11.2611C5.89027 11.2847 5.96001 11.308 6.03044 11.3308C6.03766 11.3331 6.04505 11.3354 6.05227 11.3377C6.11079 11.3566 6.16974 11.3752 6.22904 11.3934C6.25491 11.4015 6.28095 11.4093 6.30698 11.4172C6.34819 11.4296 6.38957 11.442 6.43112 11.4542C6.46159 11.4631 6.49201 11.4721 6.52264 11.4809C6.56187 11.4921 6.60136 11.5032 6.64089 11.5142C6.69899 11.5304 6.75743 11.5463 6.81616 11.562C6.84951 11.5709 6.88281 11.5799 6.91637 11.5886C6.95727 11.5992 6.99852 11.6096 7.03977 11.62C7.06753 11.627 7.09529 11.634 7.12313 11.6409C7.16636 11.6515 7.20976 11.6621 7.25333 11.6725C7.27717 11.6782 7.30119 11.6837 7.32513 11.6893C7.48055 11.7257 7.63798 11.7603 7.7974 11.793C7.81862 11.7974 7.83985 11.8018 7.86116 11.8061C7.91023 11.816 7.95948 11.8257 8.00889 11.8352C8.03059 11.8394 8.05237 11.8435 8.07412 11.8476C8.23843 11.8788 8.40468 11.908 8.57285 11.9353C8.5943 11.9387 8.61561 11.9423 8.63709 11.9457C8.68616 11.9535 8.73545 11.961 8.78482 11.9685C8.81146 11.9725 8.83819 11.9764 8.86496 11.9804C8.91351 11.9875 8.96211 11.9946 9.01096 12.0014C9.0367 12.005 9.06261 12.0083 9.08844 12.0118C9.17511 12.0236 9.2622 12.0347 9.34977 12.0454C9.38144 12.0493 9.41298 12.0532 9.44473 12.057C9.48856 12.0621 9.53261 12.067 9.57665 12.0718C9.61309 12.0759 9.64957 12.0799 9.68613 12.0837C9.7285 12.0882 9.77091 12.0926 9.81349 12.0968C9.85526 12.1009 9.89719 12.1048 9.93913 12.1088C9.97716 12.1123 10.0151 12.116 10.0532 12.1194C10.1278 12.1259 10.2027 12.1321 10.2778 12.1378C10.312 12.1405 10.3465 12.1429 10.3809 12.1454C10.4304 12.149 10.4799 12.1525 10.5297 12.1557C10.5648 12.158 10.5999 12.1602 10.6351 12.1623C10.6887 12.1656 10.7424 12.1686 10.7962 12.1715C10.826 12.1731 10.8557 12.1748 10.8855 12.1763C10.9671 12.1803 11.0489 12.1839 11.131 12.1871C11.1516 12.1879 11.1723 12.1884 11.1929 12.1892C11.2584 12.1915 11.3239 12.1936 11.3897 12.1953C11.4187 12.1961 11.4478 12.1968 11.4768 12.1974C11.5377 12.1988 11.5986 12.2 11.6598 12.2009C11.6865 12.2013 11.7133 12.2018 11.7401 12.2021C11.8265 12.203 11.9132 12.2037 12.0001 12.2037H17.0234L16.4001 12.6145C16.1801 12.7639 16.0334 13.0253 16.0334 13.3241C16.0334 13.6228 16.1801 13.8843 16.4001 14.0336L17.4634 15.267C17.5001 15.267 17.5001 15.3043 17.5001 15.3417C17.5001 15.379 17.5001 15.4164 17.4634 15.379L16.4 16.6124C16.18 16.7992 16.0333 17.0233 16.0333 17.322C16.0333 17.3283 16.0338 17.3345 16.0339 17.3407C16.0338 17.3469 16.0333 17.353 16.0333 17.3593C16.0333 17.6581 16.18 17.9195 16.4 18.0689L17.4633 19.0403C17.5 19.0777 17.5 19.0778 17.5 19.1151C17.5 19.1524 17.5 19.1524 17.4633 19.1898L16.3633 20.1986C16.1433 20.348 15.9967 20.6094 15.9967 20.8708C15.9967 21.1322 16.1433 21.3937 16.3633 21.5431L17.0233 22.2531L12 22.2531ZM22.2667 17.3981C22.2667 19.0787 20.36 20.6472 17.3167 21.5435L16.8033 20.9455C16.7667 20.9082 16.7667 20.8708 16.7667 20.8708V20.8335L17.8667 19.8246C18.0867 19.6379 18.2333 19.4138 18.2333 19.1151C18.2333 18.8163 18.0867 18.5549 17.8667 18.4055L16.8033 17.4341C16.7667 17.3967 16.7667 17.3967 16.7667 17.3594C16.7667 17.322 16.7667 17.322 16.8033 17.2847L17.8667 16.0513C18.0867 15.9019 18.2333 15.6405 18.2333 15.3417C18.2333 15.043 18.0867 14.7816 17.8667 14.6322L16.8033 13.3988C16.7667 13.3615 16.7667 13.3615 16.7667 13.3241C16.7667 13.2867 16.7667 13.2868 16.7667 13.2494L17.5367 12.7266C17.6329 12.6565 17.7085 12.5708 17.7616 12.4751C17.7793 12.4433 17.7945 12.4103 17.8071 12.3764C17.8134 12.3595 17.819 12.3424 17.824 12.3251C17.844 12.2557 17.8536 12.1834 17.8521 12.1097C17.851 12.0544 17.8437 11.9984 17.83 11.9423C17.7934 11.7189 17.611 11.5698 17.4282 11.4949C18.3125 11.2439 19.1184 10.9327 19.8254 10.5712C20.8807 10.037 21.7182 9.39328 22.2666 8.65589L22.2667 17.3981Z" fill="#7CBCF6"/>
<path d="M12 8.84259C14.4933 8.84259 16.4 7.87159 16.4 6.60185C16.4 5.33211 14.4933 4.36111 12 4.36111C9.50665 4.36111 7.6 5.33211 7.6 6.60185C7.6 7.87159 9.50665 8.84259 12 8.84259ZM12 5.10804C14.09 5.10804 15.6667 5.8923 15.6667 6.60185C15.6667 7.31141 14.09 8.09566 12 8.09566C9.91 8.09566 8.33335 7.31141 8.33335 6.60185C8.33335 5.8923 9.91 5.10804 12 5.10804Z" stroke="#7CBCF6" stroke-width="0.4"/>
<path d="M12 1C5.84 1 1 3.46482 1 6.60185V17.3981C1 20.5352 5.84 23 12 23H17.17C17.5 23 17.7567 22.8133 17.8667 22.5145C17.8987 22.3838 17.8957 22.253 17.8606 22.1316C21.089 21.1279 23 19.3805 23 17.3981V6.60185C23 3.46482 18.16 1 12 1ZM12 1.74693C17.5733 1.74693 22.2667 3.98767 22.2667 6.60185C22.2667 9.21604 17.5733 11.4568 12 11.4568C6.42665 11.4568 1.73335 9.21604 1.73335 6.60185C1.73335 3.98767 6.42665 1.74693 12 1.74693ZM12 22.2531C6.42665 22.2531 1.73335 20.0123 1.73335 17.3981V8.65585C2.50717 9.68226 3.85536 10.5556 5.58661 11.179C5.59314 11.1814 5.59972 11.1837 5.60629 11.186C5.66864 11.2084 5.73146 11.2304 5.7948 11.2521C5.80356 11.2552 5.81224 11.2582 5.82101 11.2611C5.89027 11.2847 5.96001 11.308 6.03044 11.3308C6.03766 11.3331 6.04505 11.3354 6.05227 11.3377C6.11079 11.3566 6.16974 11.3752 6.22904 11.3934C6.25491 11.4015 6.28095 11.4093 6.30698 11.4172C6.34819 11.4296 6.38957 11.442 6.43112 11.4542C6.46159 11.4631 6.49201 11.4721 6.52264 11.4809C6.56187 11.4921 6.60136 11.5032 6.64089 11.5142C6.69899 11.5304 6.75743 11.5463 6.81616 11.562C6.84951 11.5709 6.88281 11.5799 6.91637 11.5886C6.95727 11.5992 6.99852 11.6096 7.03977 11.62C7.06753 11.627 7.09529 11.634 7.12313 11.6409C7.16636 11.6515 7.20976 11.6621 7.25333 11.6725C7.27717 11.6782 7.30119 11.6837 7.32513 11.6893C7.48055 11.7257 7.63798 11.7603 7.7974 11.793C7.81862 11.7974 7.83985 11.8018 7.86116 11.8061C7.91023 11.816 7.95948 11.8257 8.00889 11.8352C8.03059 11.8394 8.05237 11.8435 8.07412 11.8476C8.23843 11.8788 8.40468 11.908 8.57285 11.9353C8.5943 11.9387 8.61561 11.9423 8.63709 11.9457C8.68616 11.9535 8.73545 11.961 8.78482 11.9685C8.81146 11.9725 8.83819 11.9764 8.86496 11.9804C8.91351 11.9875 8.96211 11.9946 9.01096 12.0014C9.0367 12.005 9.06261 12.0083 9.08844 12.0118C9.17511 12.0236 9.2622 12.0347 9.34977 12.0454C9.38144 12.0493 9.41298 12.0532 9.44473 12.057C9.48856 12.0621 9.53261 12.067 9.57665 12.0718C9.61309 12.0759 9.64957 12.0799 9.68613 12.0837C9.7285 12.0882 9.77091 12.0926 9.81349 12.0968C9.85526 12.1009 9.89719 12.1048 9.93913 12.1088C9.97716 12.1123 10.0151 12.116 10.0532 12.1194C10.1278 12.1259 10.2027 12.1321 10.2778 12.1378C10.312 12.1405 10.3465 12.1429 10.3809 12.1454C10.4304 12.149 10.4799 12.1525 10.5297 12.1557C10.5648 12.158 10.5999 12.1602 10.6351 12.1623C10.6887 12.1656 10.7424 12.1686 10.7962 12.1715C10.826 12.1731 10.8557 12.1748 10.8855 12.1763C10.9671 12.1803 11.0489 12.1839 11.131 12.1871C11.1516 12.1879 11.1723 12.1884 11.1929 12.1892C11.2584 12.1915 11.3239 12.1936 11.3897 12.1953C11.4187 12.1961 11.4478 12.1968 11.4768 12.1974C11.5377 12.1988 11.5986 12.2 11.6598 12.2009C11.6865 12.2013 11.7133 12.2018 11.7401 12.2021C11.8265 12.203 11.9132 12.2037 12.0001 12.2037H17.0234L16.4001 12.6145C16.1801 12.7639 16.0334 13.0253 16.0334 13.3241C16.0334 13.6228 16.1801 13.8843 16.4001 14.0336L17.4634 15.267C17.5001 15.267 17.5001 15.3043 17.5001 15.3417C17.5001 15.379 17.5001 15.4164 17.4634 15.379L16.4 16.6124C16.18 16.7992 16.0333 17.0233 16.0333 17.322C16.0333 17.3283 16.0338 17.3345 16.0339 17.3407C16.0338 17.3469 16.0333 17.353 16.0333 17.3593C16.0333 17.6581 16.18 17.9195 16.4 18.0689L17.4633 19.0403C17.5 19.0777 17.5 19.0778 17.5 19.1151C17.5 19.1524 17.5 19.1524 17.4633 19.1898L16.3633 20.1986C16.1433 20.348 15.9967 20.6094 15.9967 20.8708C15.9967 21.1322 16.1433 21.3937 16.3633 21.5431L17.0233 22.2531L12 22.2531ZM22.2667 17.3981C22.2667 19.0787 20.36 20.6472 17.3167 21.5435L16.8033 20.9455C16.7667 20.9082 16.7667 20.8708 16.7667 20.8708V20.8335L17.8667 19.8246C18.0867 19.6379 18.2333 19.4138 18.2333 19.1151C18.2333 18.8163 18.0867 18.5549 17.8667 18.4055L16.8033 17.4341C16.7667 17.3967 16.7667 17.3967 16.7667 17.3594C16.7667 17.322 16.7667 17.322 16.8033 17.2847L17.8667 16.0513C18.0867 15.9019 18.2333 15.6405 18.2333 15.3417C18.2333 15.043 18.0867 14.7816 17.8667 14.6322L16.8033 13.3988C16.7667 13.3615 16.7667 13.3615 16.7667 13.3241C16.7667 13.2867 16.7667 13.2868 16.7667 13.2494L17.5367 12.7266C17.6329 12.6565 17.7085 12.5708 17.7616 12.4751C17.7793 12.4433 17.7945 12.4103 17.8071 12.3764C17.8134 12.3595 17.819 12.3424 17.824 12.3251C17.844 12.2557 17.8536 12.1834 17.8521 12.1097C17.851 12.0544 17.8437 11.9984 17.83 11.9423C17.7934 11.7189 17.611 11.5698 17.4282 11.4949C18.3125 11.2439 19.1184 10.9327 19.8254 10.5712C20.8807 10.037 21.7182 9.39328 22.2666 8.65589L22.2667 17.3981Z" stroke="#7CBCF6" stroke-width="0.4"/>
</svg>
