<svg width="24" height="20" viewBox="0 0 24 20" fill="none" xmlns="http://www.w3.org/2000/svg">
<path d="M22.5418 11.3878L19.7708 5.16761C20.2808 4.87414 20.6232 4.33753 20.6232 3.72533C20.6232 2.79918 19.8401 2.04574 18.8774 2.04574C18.5136 2.04574 18.2186 2.32956 18.2186 2.67952C18.2186 3.02948 18.5136 3.3133 18.8774 3.3133C19.1135 3.3133 19.3056 3.49819 19.3056 3.72526C19.3056 3.95239 19.1135 4.13722 18.8774 4.13722H12.6588V1.63378C12.6588 1.28382 12.3638 1 12 1C11.6362 1 11.3412 1.28382 11.3412 1.63378V4.13735H5.12263C4.88646 4.13735 4.69441 3.95246 4.69441 3.72539C4.69441 3.49826 4.88653 3.31343 5.12263 3.31343C5.4864 3.31343 5.78141 3.02961 5.78141 2.67965C5.78141 2.32969 5.4864 2.04587 5.12263 2.04587C4.15993 2.04587 3.37677 2.79931 3.37677 3.72546C3.37677 4.33766 3.71919 4.8742 4.22923 5.16774L1.45825 11.3878C1.19246 11.4696 1 11.7088 1 11.9915C1 14.1813 2.84936 15.9628 5.12263 15.9628C7.39582 15.9628 9.24525 14.1813 9.24525 11.9915C9.24525 11.7088 9.05279 11.4695 8.787 11.3878L6.12175 5.40491H11.3412V17.7324H8.73892C8.37508 17.7324 8.08013 18.0162 8.08013 18.3662C8.08013 18.7162 8.37508 19 8.73892 19H15.2611C15.625 19 15.9199 18.7162 15.9199 18.3662C15.9199 18.0162 15.625 17.7324 15.2611 17.7324H12.6588V5.40491H17.8783L15.213 11.3878C14.9473 11.4696 14.7547 11.7088 14.7547 11.9915C14.7547 14.1813 16.6042 15.9628 18.8774 15.9628C21.1506 15.9628 23 14.1813 23 11.9915C23 11.7088 22.8075 11.4696 22.5418 11.3878ZM5.12263 6.3801L7.34007 11.3577H2.90519L5.12263 6.3801ZM5.12263 14.6952C3.80236 14.6952 2.69212 13.8114 2.39549 12.6253H7.84976C7.55306 13.8114 6.44283 14.6952 5.12263 14.6952ZM21.0948 11.3577H16.66L18.8774 6.3801L21.0948 11.3577ZM18.8774 14.6952C17.5572 14.6952 16.4469 13.8114 16.1502 12.6253H21.6045C21.3079 13.8114 20.1977 14.6952 18.8774 14.6952Z" fill="white" stroke="white" stroke-width="0.2"/>
</svg>
