<svg width="46" height="46" viewBox="0 0 46 46" fill="none" xmlns="http://www.w3.org/2000/svg">
<path d="M22.9999 26.7097C22.0843 26.7097 21.2118 26.3669 20.5337 25.7548C19.673 26.0605 18.7367 26.0449 17.8894 25.6932C17.0429 25.3423 16.3677 24.6924 15.9767 23.8666C15.0641 23.8206 14.2042 23.4466 13.5572 22.7982C12.9088 22.1505 12.5341 21.2921 12.4889 20.3787C11.6631 19.9877 11.0131 19.3118 10.6622 18.466C10.3113 17.6187 10.2942 16.6817 10.6006 15.8218C9.98779 15.1429 9.64502 14.2704 9.64502 13.3548C9.64502 12.4393 9.98779 11.5668 10.5999 10.8886C10.2935 10.0287 10.3105 9.09094 10.6615 8.24439C11.0124 7.39784 11.6623 6.72268 12.4881 6.33168C12.5341 5.4191 12.9081 4.55919 13.5565 3.91223C14.2035 3.26377 15.0626 2.8891 15.976 2.84384C16.367 2.01806 17.0429 1.36813 17.8887 1.01719C18.7352 0.665516 19.6723 0.648452 20.5329 0.955613C21.2118 0.342774 22.0843 0 22.9999 0C23.9154 0 24.7879 0.342774 25.4661 0.954871C26.326 0.64771 27.2623 0.664774 28.1103 1.01645C28.9569 1.36739 29.632 2.01732 30.023 2.8431C30.9356 2.8891 31.7955 3.26303 32.4425 3.91148C33.0909 4.55919 33.4656 5.41761 33.5109 6.33094C34.3366 6.72194 34.9866 7.39784 35.3375 8.24365C35.6884 9.09094 35.7055 10.028 35.3991 10.8879C36.0119 11.5668 36.3547 12.4393 36.3547 13.3548C36.3547 14.2704 36.0119 15.1429 35.3998 15.821C35.7062 16.6809 35.6892 17.6187 35.3382 18.4653C34.9873 19.3118 34.3374 19.987 33.5116 20.378C33.4656 21.2906 33.0917 22.1505 32.4432 22.7975C31.7962 23.4459 30.9371 23.8206 30.0238 23.8658C29.6328 24.6916 28.9569 25.3415 28.1111 25.6925C27.2638 26.0442 26.3267 26.0597 25.4668 25.7541C24.7879 26.3669 23.9154 26.7097 22.9999 26.7097Z" fill="#637DD9"/>
<path d="M22.9999 23.7419C28.7276 23.7419 33.387 19.0826 33.387 13.3548C33.387 7.6271 28.7276 2.96774 22.9999 2.96774C17.2721 2.96774 12.6128 7.6271 12.6128 13.3548C12.6128 19.0826 17.2721 23.7419 22.9999 23.7419ZM22.9999 4.45161C27.9093 4.45161 31.9031 8.44545 31.9031 13.3548C31.9031 18.2642 27.9093 22.2581 22.9999 22.2581C18.0905 22.2581 14.0967 18.2642 14.0967 13.3548C14.0967 8.44545 18.0905 4.45161 22.9999 4.45161Z" fill="#282730"/>
<path d="M19.0738 18.0018L27.9771 9.09845L26.9278 8.0492L18.0245 16.9525L19.0738 18.0018Z" fill="#282730"/>
<path d="M14.0969 29.6774H11.8711V32.6452V34.129V37.0968H14.0969C15.3241 37.0968 16.3227 36.0981 16.3227 34.871C16.3227 34.2989 16.0994 33.7818 15.744 33.3871C16.1001 32.9924 16.3227 32.4753 16.3227 31.9032C16.3227 30.6761 15.3241 29.6774 14.0969 29.6774ZM13.355 31.1613H14.0969C14.5057 31.1613 14.8388 31.4937 14.8388 31.9032C14.8388 32.3128 14.5057 32.6452 14.0969 32.6452H13.355V31.1613ZM14.0969 35.6129H13.355V34.129H14.0969C14.5057 34.129 14.8388 34.4614 14.8388 34.871C14.8388 35.2805 14.5057 35.6129 14.0969 35.6129Z" fill="#282730"/>
<path d="M17.8066 37.0968H21.5163V35.6129H19.2905V34.129H20.7744V32.6452H19.2905V31.1613H21.5163V29.6774H17.8066V37.0968Z" fill="#282730"/>
<path d="M25.2258 31.1613C25.6346 31.1613 25.9677 31.4937 25.9677 31.9032H27.4516C27.4516 30.6761 26.453 29.6774 25.2258 29.6774C23.9986 29.6774 23 30.6761 23 31.9032C23 33.1304 23.9986 34.129 25.2258 34.129C25.6346 34.129 25.9677 34.4614 25.9677 34.871C25.9677 35.2805 25.6346 35.6129 25.2258 35.6129C24.817 35.6129 24.4839 35.2805 24.4839 34.871H23C23 36.0981 23.9986 37.0968 25.2258 37.0968C26.453 37.0968 27.4516 36.0981 27.4516 34.871C27.4516 33.6438 26.453 32.6452 25.2258 32.6452C24.817 32.6452 24.4839 32.3128 24.4839 31.9032C24.4839 31.4937 24.817 31.1613 25.2258 31.1613Z" fill="#282730"/>
<path d="M34.1288 29.6774H28.1934V31.1613H30.4192V37.0968H31.903V31.1613H34.1288V29.6774Z" fill="#282730"/>
<path d="M46 32.6452H37.0968V26.7097H8.90323V32.6452H0L5.00806 39.3226L0 46H17.8065V40.0645H28.1935V46H46L40.9919 39.3226L46 32.6452ZM6.8629 39.3226L2.96774 34.129H8.90323V39.6787L14.9493 44.5161H2.96774L6.8629 39.3226ZM16.3226 43.7141L11.7604 40.0645H16.3226V43.7141ZM10.3871 38.5806V28.1935H35.6129V38.5806H10.3871ZM34.2396 40.0645L29.6774 43.7141V40.0645H34.2396ZM43.0323 44.5161H31.0507L37.0968 39.6787V34.129H43.0323L39.1371 39.3226L43.0323 44.5161Z" fill="#282730"/>
<path d="M25.9675 13.7703C24.7403 13.7703 23.7417 14.769 23.7417 15.9961C23.7417 17.2233 24.7403 18.222 25.9675 18.222C27.1947 18.222 28.1933 17.2233 28.1933 15.9961C28.1933 14.769 27.1947 13.7703 25.9675 13.7703ZM25.9675 16.7381C25.5587 16.7381 25.2256 16.4057 25.2256 15.9961C25.2256 15.5866 25.5587 15.2542 25.9675 15.2542C26.3763 15.2542 26.7094 15.5866 26.7094 15.9961C26.7094 16.4057 26.3763 16.7381 25.9675 16.7381Z" fill="#282730"/>
<path d="M20.0324 12.2864C21.2596 12.2864 22.2583 11.2878 22.2583 10.0606C22.2583 8.83348 21.2596 7.83484 20.0324 7.83484C18.8053 7.83484 17.8066 8.83348 17.8066 10.0606C17.8066 11.2878 18.8053 12.2864 20.0324 12.2864ZM20.0324 9.31871C20.4413 9.31871 20.7744 9.65109 20.7744 10.0606C20.7744 10.4702 20.4413 10.8026 20.0324 10.8026C19.6236 10.8026 19.2905 10.4702 19.2905 10.0606C19.2905 9.65109 19.6236 9.31871 20.0324 9.31871Z" fill="#282730"/>
</svg>
