<svg width="46" height="46" viewBox="0 0 46 46" fill="none" xmlns="http://www.w3.org/2000/svg">
<g clip-path="url(#clip0)">
<path d="M37.839 4.4519C36.5021 4.4519 35.243 4.77983 34.1294 5.34963V19.8765C35.243 20.4463 36.5021 20.7742 37.839 20.7742C42.3462 20.7742 46.0002 17.1202 46.0002 12.6131C46.0002 8.10588 42.3462 4.4519 37.839 4.4519Z" fill="#637DD9"/>
<path d="M30.4196 40.0642H27.4519C27.0416 40.0642 26.71 40.3958 26.71 40.8061V45.2577H28.1938H29.6777H31.1615V40.8061C31.1615 40.3958 30.8299 40.0642 30.4196 40.0642Z" fill="#637DD9"/>
<path d="M36.3551 37.0965H33.3874C32.9771 37.0965 32.6455 37.4281 32.6455 37.8384V45.2577H34.1294H35.6132H37.097V37.8384C37.097 37.4281 36.7654 37.0965 36.3551 37.0965Z" fill="#637DD9"/>
<path d="M42.2902 34.1288H39.3225C38.9122 34.1288 38.5806 34.4605 38.5806 34.8707V45.2577H40.0644H41.5483H43.0321V34.8707C43.0321 34.4605 42.7005 34.1288 42.2902 34.1288Z" fill="#637DD9"/>
<path d="M32.6454 0.000366211C31.5926 0.000366211 30.7134 0.736354 30.4834 1.7194L30.1228 1.88337C25.1178 4.15811 17.5383 5.19383 12.6134 5.19383H11.8715H9.64575C8.67976 5.19383 7.86365 5.81631 7.55649 6.67768H4.45228V8.16153C1.99726 8.16153 0.000741924 10.158 0.000741924 12.6131C0.000741924 15.0681 1.99726 17.0646 4.45228 17.0646V18.5485H7.55649C7.86365 19.4098 8.67976 20.0323 9.64575 20.0323H11.8715H12.6134C12.8531 20.0323 13.1039 20.0368 13.3554 20.0419V22.3056C12.5504 22.4117 11.8033 22.7611 11.2194 23.3442L9.99074 24.5736C9.57007 24.9943 9.0114 25.2258 8.41638 25.2258H5.93539V23.7419H0V38.5804H5.93539V36.3546H6.93253C7.52756 36.3546 8.08697 36.5861 8.50615 37.006L8.9936 37.4942C9.69397 38.1946 10.6258 38.5804 11.617 38.5804H18.5481H19.2908H23.0004C24.2275 38.5804 25.2261 37.5818 25.2261 36.3546C25.2261 35.7826 25.0028 35.2655 24.6474 34.8708C25.0036 34.4761 25.2261 33.959 25.2261 33.3869C25.2261 32.8149 25.0028 32.2978 24.6474 31.9031C25.0036 31.5084 25.2261 30.9913 25.2261 30.4192C25.2261 29.8472 25.0028 29.3301 24.6474 28.9354C25.0036 28.5407 25.2261 28.0236 25.2261 27.4515C25.2261 26.2244 24.2275 25.2258 23.0004 25.2258H22.8639C22.947 24.9928 23.0004 24.745 23.0004 24.4838C23.0004 23.2567 22.0017 22.2581 20.7746 22.2581V20.7431C24.0954 21.2832 27.4705 22.1371 30.1228 23.3428L30.4834 23.5067C30.7142 24.4898 31.5933 25.2258 32.6454 25.2258C33.8725 25.2258 34.8711 24.2271 34.8711 23V2.22614C34.8711 0.998995 33.8725 0.000366211 32.6454 0.000366211ZM4.45228 15.5808C2.8156 15.5808 1.48459 14.2498 1.48459 12.6131C1.48459 10.9764 2.8156 9.64537 4.45228 9.64537V15.5808ZM7.41998 17.0646H5.93613V8.16153H7.41998V17.0646ZM11.8715 8.16153H10.3877V9.64537H11.8715V15.5808H10.3877V17.0646H11.8715V18.5485H9.64575C9.23621 18.5485 8.90382 18.2153 8.90382 17.8065V7.4196C8.90382 7.0108 9.23621 6.67768 9.64575 6.67768H11.8715V8.16153ZM4.45154 37.0965H1.48385V25.2258H4.45154V37.0965ZM16.901 31.9031C16.5449 32.2978 16.3223 32.8149 16.3223 33.3869C16.3223 33.959 16.5456 34.4761 16.901 34.8708C16.5449 35.2655 16.3223 35.7826 16.3223 36.3546C16.3223 36.6158 16.3757 36.8636 16.4588 37.0965H14.8392V27.0168L15.1464 26.7096H16.4588C16.3757 26.9426 16.3223 27.1904 16.3223 27.4515C16.3223 28.0236 16.5456 28.5407 16.901 28.9354C16.5449 29.3301 16.3223 29.8472 16.3223 30.4192C16.3223 30.9913 16.5456 31.5084 16.901 31.9031ZM23.0004 37.0965H19.2908H18.5481C18.1385 37.0965 17.8062 36.7634 17.8062 36.3546C17.8062 35.9458 18.1385 35.6127 18.5481 35.6127H23.0004C23.4099 35.6127 23.7423 35.9458 23.7423 36.3546C23.7423 36.7634 23.4099 37.0965 23.0004 37.0965ZM23.0004 34.1288H18.5481C18.1385 34.1288 17.8062 33.7957 17.8062 33.3869C17.8062 32.9781 18.1385 32.645 18.5481 32.645H23.0004C23.4099 32.645 23.7423 32.9781 23.7423 33.3869C23.7423 33.7957 23.4099 34.1288 23.0004 34.1288ZM23.0004 31.1612H18.5481C18.1385 31.1612 17.8062 30.828 17.8062 30.4192C17.8062 30.0104 18.1385 29.6773 18.5481 29.6773H23.0004C23.4099 29.6773 23.7423 30.0104 23.7423 30.4192C23.7423 30.828 23.4099 31.1612 23.0004 31.1612ZM23.0004 26.7096C23.4099 26.7096 23.7423 27.0427 23.7423 27.4515C23.7423 27.8603 23.4099 28.1935 23.0004 28.1935H18.5481C18.1385 28.1935 17.8062 27.8603 17.8062 27.4515C17.8062 27.0427 18.1385 26.7096 18.5481 26.7096H20.7746H23.0004ZM21.5165 24.4838C21.5165 24.8926 21.1841 25.2258 20.7746 25.2258H18.5481H14.5321L11.347 28.4108L12.3961 29.4599L13.3554 28.5006V37.0965H11.617C11.022 37.0965 10.4626 36.8651 10.0434 36.4451L9.55597 35.957C8.8556 35.2566 7.92374 34.8708 6.93253 34.8708H5.93539V26.7096H8.41638C9.40759 26.7096 10.3394 26.3238 11.0398 25.6234L12.2684 24.3941C12.6891 23.9734 13.2478 23.7419 13.8428 23.7419H20.7746C21.1841 23.7419 21.5165 24.075 21.5165 24.4838ZM14.8392 22.2581V20.0968C16.2311 20.171 17.7401 20.3113 19.2908 20.5212V22.2581H14.8392ZM13.3554 18.5559V17.0646H14.8392V15.5808H13.3554V9.64537H14.8392V8.16153H13.3554V6.67026C18.3263 6.57381 25.4688 5.52918 30.4196 3.36944V21.856C25.4688 19.697 18.3263 18.6516 13.3554 18.5559ZM33.3873 23C33.3873 23.4088 33.0549 23.7419 32.6454 23.7419C32.2358 23.7419 31.9035 23.4088 31.9035 23V2.22614C31.9035 1.81734 32.2358 1.48421 32.6454 1.48421C33.0549 1.48421 33.3873 1.81734 33.3873 2.22614V23Z" fill="#282730"/>
<path d="M17.8823 9.36122C20.5221 9.09264 24.4914 8.5132 28.4169 7.27715L27.9703 5.8623C24.1649 7.06051 20.3017 7.62363 17.731 7.88553L17.8823 9.36122Z" fill="#282730"/>
<path d="M37.8391 11.8712C37.4295 11.8712 37.0971 11.538 37.0971 11.1292C37.0971 10.7204 37.4295 10.3873 37.8391 10.3873C38.2486 10.3873 38.581 10.7204 38.581 11.1292H40.0648C40.0648 10.1632 39.4423 9.34713 38.581 9.03998V7.41962H37.0971V9.03998C36.2358 9.34713 35.6133 10.1632 35.6133 11.1292C35.6133 12.3564 36.6119 13.355 37.8391 13.355C38.2486 13.355 38.581 13.6881 38.581 14.0969C38.581 14.5057 38.2486 14.8389 37.8391 14.8389C37.4295 14.8389 37.0971 14.5057 37.0971 14.0969H35.6133C35.6133 15.0629 36.2358 15.879 37.0971 16.1862V17.8065H38.581V16.1862C39.4423 15.879 40.0648 15.0629 40.0648 14.0969C40.0648 12.8698 39.0662 11.8712 37.8391 11.8712Z" fill="#282730"/>
<path d="M41.5487 25.2257V26.7096H43.4673L43.3924 26.7845C39.1345 31.0417 33.4736 33.3869 27.4521 33.3869V34.8707C33.8698 34.8707 39.9039 32.3712 44.4415 27.8336L44.5164 27.7587V29.6773H46.0002V25.2257H41.5487Z" fill="#282730"/>
<path d="M45.9999 45.9996H25.2261V44.5158H44.5161V32.645H45.9999V45.9996Z" fill="#282730"/>
<path d="M43.0327 11.8712H41.5488V13.355H43.0327V11.8712Z" fill="#282730"/>
</g>
<defs>
<clipPath id="clip0">
<rect width="46" height="46" fill="white"/>
</clipPath>
</defs>
</svg>
