<svg width="46" height="46" viewBox="0 0 46 46" fill="none" xmlns="http://www.w3.org/2000/svg">
<path d="M31.9031 12.6129H9.64502V2.96774H31.9031V12.6129Z" fill="#637DD9"/>
<path d="M35.6129 26.2126H34.129V34.871H11.871V38.5806C11.871 39.5466 11.2485 40.3628 10.3871 40.6699V38.5806H8.90322V35.1781L14.1606 29.9208C14.5983 29.4838 14.8387 28.9021 14.8387 28.2833C14.8387 27.0065 13.8 25.9677 12.5231 25.9677C11.9133 25.9677 11.3167 26.2148 10.8857 26.6459L8.36458 29.167L7.65381 27.7469C7.50023 27.439 7.41935 27.0947 7.41935 26.7512V22.4673C7.41935 22.0006 7.56255 21.554 7.8341 21.1734L10.7128 17.1432C10.9851 16.7625 11.129 16.3129 11.129 15.8433V15.591C11.129 14.3587 10.1252 13.3548 8.8921 13.3548C8.31635 13.3548 7.80368 13.5811 7.41935 13.9885V3.70968C7.41935 2.87129 7.12926 2.10561 6.65813 1.48387H31.9032C33.1304 1.48387 34.129 2.48252 34.129 3.70968V12.4475H35.6129V3.70968C35.6129 1.66416 33.9487 0 31.9032 0H3.70968C1.66416 0 0 1.66416 0 3.70968V10.3871H5.93548V15.9153L2.93064 19.7778C2.51071 20.1502 2.22135 20.7675 2.1301 21.4916L1.51281 26.4344C1.49426 26.5873 1.48387 26.7408 1.48387 26.8944V33.2024C1.48387 33.3567 1.49426 33.5095 1.51281 33.6624L2.12713 38.5806H0V46H10.3871V42.2903H37.8387C39.8842 42.2903 41.5484 40.6262 41.5484 38.5806V34.871H35.6129V26.2126ZM1.48387 8.90323V3.70968C1.48387 2.48252 2.48252 1.48387 3.70968 1.48387C4.93684 1.48387 5.93548 2.48252 5.93548 3.70968V8.90323H1.48387ZM2.98481 33.4791C2.97368 33.3871 2.96774 33.2944 2.96774 33.2024V26.8944C2.96774 26.8024 2.97368 26.7097 2.98481 26.6184L3.6021 21.6764C3.65403 21.2616 3.80613 20.9723 3.92632 20.8788L8.29855 15.2943L8.36755 15.1882C8.533 14.8788 8.73481 14.8387 8.8921 14.8387C9.30758 14.8387 9.64516 15.1763 9.64516 15.5918V15.844C9.64516 16.0021 9.59694 16.1534 9.50568 16.2818L6.62697 20.312C6.17439 20.9441 5.93548 21.6897 5.93548 22.4673V26.7512C5.93548 27.3233 6.07126 27.8975 6.32648 28.4102L6.96084 29.6774H6.67742V31.1613H8.46845L11.9348 27.695C12.0898 27.5406 12.3043 27.4516 12.5231 27.4516C12.9816 27.4516 13.3548 27.8248 13.3548 28.2833C13.3548 28.5059 13.2688 28.7144 13.1115 28.8717L7.41935 34.5638V38.5806H3.62287L2.98481 33.4791ZM8.90322 44.5161H1.48387V40.0645H8.90322V44.5161ZM40.0645 38.5806C40.0645 39.8078 39.0659 40.8065 37.8387 40.8065H12.6114C13.0781 40.1862 13.3548 39.4153 13.3548 38.5806V36.3548H40.0645V38.5806Z" fill="#282730"/>
<path d="M37.8385 27.4516C42.3459 27.4516 45.9998 23.7977 45.9998 19.2903C45.9998 14.783 42.3459 11.129 37.8385 11.129C33.3312 11.129 29.6772 14.783 29.6772 19.2903C29.6772 23.7977 33.3312 27.4516 37.8385 27.4516Z" fill="#637DD9"/>
<path d="M28.1937 23H13.355V24.4839H28.1937V23Z" fill="#282730"/>
<path d="M19.2905 17.0645H14.8389V18.5484H19.2905V17.0645Z" fill="#282730"/>
<path d="M26.7099 17.0645H22.2583V18.5484H26.7099V17.0645Z" fill="#282730"/>
<path d="M19.2905 20.0323H14.8389V21.5161H19.2905V20.0323Z" fill="#282730"/>
<path d="M26.7099 20.0323H22.2583V21.5161H26.7099V20.0323Z" fill="#282730"/>
<path d="M31.9032 28.9355H20.0322V30.4194H31.9032V28.9355Z" fill="#282730"/>
<path d="M31.9033 31.9032H27.4517V33.3871H31.9033V31.9032Z" fill="#282730"/>
<path d="M24.4838 31.9032H20.0322V33.3871H24.4838V31.9032Z" fill="#282730"/>
<path d="M35.6128 17.8064C35.6128 19.0336 36.6114 20.0323 37.8386 20.0323C38.2481 20.0323 38.5805 20.3654 38.5805 20.7742C38.5805 21.183 38.2481 21.5161 37.8386 21.5161C37.4291 21.5161 37.0967 21.183 37.0967 20.7742H35.6128C35.6128 21.7402 36.2353 22.5563 37.0967 22.8635V24.4839H38.5805V22.8635C39.4419 22.5563 40.0644 21.7402 40.0644 20.7742C40.0644 19.547 39.0658 18.5484 37.8386 18.5484C37.4291 18.5484 37.0967 18.2153 37.0967 17.8064C37.0967 17.3976 37.4291 17.0645 37.8386 17.0645C38.2481 17.0645 38.5805 17.3976 38.5805 17.8064H40.0644C40.0644 16.8404 39.4419 16.0243 38.5805 15.7172V14.0968H37.0967V15.7172C36.2353 16.0243 35.6128 16.8404 35.6128 17.8064Z" fill="#282730"/>
<path d="M43.0322 18.5484H41.5483V20.0323H43.0322V18.5484Z" fill="#282730"/>
<path d="M34.1289 18.5484H32.645V20.0323H34.1289V18.5484Z" fill="#282730"/>
</svg>
