<svg width="46" height="46" viewBox="0 0 46 46" fill="none" xmlns="http://www.w3.org/2000/svg">
<path d="M3.70944 40.8064H42.2901C43.929 40.8064 45.2578 39.4776 45.2578 37.8387V35.6129H0.741699V37.8387C0.741699 39.4776 2.07051 40.8064 3.70944 40.8064Z" fill="#637DD9"/>
<path d="M12.6128 0.741936L9.64502 9.64516C9.64502 10.8745 10.6414 11.871 11.8708 11.871C13.1002 11.871 14.0966 10.8745 14.0966 9.64516C14.0966 10.8745 15.0931 11.871 16.3224 11.871C17.5518 11.871 18.5482 10.8745 18.5482 9.64516C18.5482 10.8745 19.5447 11.871 20.7741 11.871C22.0034 11.871 22.9999 10.8745 22.9999 9.64516C22.9999 10.8745 23.9963 11.871 25.2257 11.871C26.4551 11.871 27.4515 10.8745 27.4515 9.64516C27.4515 10.8745 28.4479 11.871 29.6773 11.871C30.9067 11.871 31.9031 10.8745 31.9031 9.64516C31.9031 10.8745 32.8995 11.871 34.1289 11.871C35.3583 11.871 36.3547 10.8745 36.3547 9.64516L33.387 0.741936H12.6128Z" fill="#637DD9"/>
<path d="M42.2903 8.16129H36.642L33.922 0H12.078L9.35729 8.16129H3.70968C1.66416 8.16129 0 9.82545 0 11.871V37.8387C0 39.8842 1.66416 41.5484 3.70968 41.5484H12.6129V44.5161H9.64516V46H36.3548V44.5161H33.3871V41.5484H42.2903C44.3358 41.5484 46 39.8842 46 37.8387V11.871C46 9.82545 44.3358 8.16129 42.2903 8.16129ZM29.5743 14.0968H15.6511L14.7608 23H11.871V12.6129C12.7561 12.6129 13.5529 12.2234 14.0968 11.6061C14.6406 12.2234 15.4375 12.6129 16.3226 12.6129C17.2077 12.6129 18.0045 12.2234 18.5484 11.6061C19.0922 12.2234 19.8891 12.6129 20.7742 12.6129C21.6593 12.6129 22.4562 12.2234 23 11.6061C23.5438 12.2234 24.3407 12.6129 25.2258 12.6129C26.1109 12.6129 26.9078 12.2234 27.4516 11.6061C27.9955 12.2234 28.7923 12.6129 29.6774 12.6129C30.5625 12.6129 31.3594 12.2234 31.9032 11.6061C32.4471 12.2234 33.2439 12.6129 34.129 12.6129V23H30.9098L29.5743 14.0968ZM15.6585 28.9355L16.994 15.5806H27.413L26.7453 28.9355H15.6585ZM28.7485 18.5959L30.2999 28.9355H28.2321L28.7485 18.5959ZM31.1576 9.68374C31.1368 10.4835 30.4824 11.129 29.6774 11.129C28.8591 11.129 28.1935 10.4635 28.1935 9.64516H28.1906V9.58358L27.5154 1.48387H29.7909L31.1576 9.68374ZM26.7097 9.64516C26.7097 10.4635 26.0442 11.129 25.2258 11.129C24.4075 11.129 23.7419 10.4635 23.7419 9.64516V1.48387H26.0278L26.7097 9.64516ZM22.2581 9.64516C22.2581 10.4635 21.5925 11.129 20.7742 11.129C19.9603 11.129 19.2985 10.4695 19.2918 9.65703L19.9729 1.48387H22.2581V9.64516ZM17.8065 9.64516C17.8065 10.4635 17.1409 11.129 16.3226 11.129C15.5176 11.129 14.8632 10.4835 14.8424 9.68374L16.2091 1.48387H18.4846L17.8065 9.64516ZM35.6092 9.75348C35.5535 10.5214 34.911 11.129 34.129 11.129C33.3107 11.129 32.6452 10.4635 32.6452 9.64516L31.2941 1.48387H32.8522L35.6092 9.75348ZM13.1478 1.48387H14.7052L13.3652 9.52348L13.3637 9.64516H13.3548C13.3548 10.4635 12.6893 11.129 11.871 11.129C11.089 11.129 10.4465 10.5214 10.3908 9.75348L13.1478 1.48387ZM3.70968 9.64516H8.90323C8.90323 10.7388 9.50419 11.6855 10.3871 12.2004V24.4839H14.6124L14.0189 30.4194H32.0234L31.1331 24.4839H35.6129V12.2004C36.4958 11.6855 37.0968 10.7388 37.0968 9.64516H42.2903C43.5175 9.64516 44.5161 10.6438 44.5161 11.871V34.129H1.48387V11.871C1.48387 10.6438 2.48252 9.64516 3.70968 9.64516ZM31.9032 44.5161H14.0968V41.5484H31.9032V44.5161ZM42.2903 40.0645H3.70968C2.48252 40.0645 1.48387 39.0659 1.48387 37.8387V35.6129H44.5161V37.8387C44.5161 39.0659 43.5175 40.0645 42.2903 40.0645Z" fill="#282730"/>
<path d="M28.9354 37.0968H17.0645V38.5806H28.9354V37.0968Z" fill="#282730"/>
<path d="M24.4838 17.8065V18.5484C24.4838 19.7755 23.4852 20.7742 22.258 20.7742C21.0309 20.7742 20.0322 19.7755 20.0322 18.5484V17.8065H18.5483V18.5484C18.5483 20.5939 20.2125 22.2581 22.258 22.2581C24.3035 22.2581 25.9677 20.5939 25.9677 18.5484V17.8065H24.4838Z" fill="#282730"/>
</svg>
