<svg width="22" height="22" viewBox="0 0 22 22" fill="none" xmlns="http://www.w3.org/2000/svg">
<g opacity="0.3">
<path d="M6.53848 8.51339C6.51837 8.00148 6.91847 7.57086 7.43048 7.55336C7.93882 7.53598 8.36567 7.93258 8.38564 8.44083L8.71361 16.7893C8.73372 17.3013 8.33355 17.7319 7.82149 17.7494C7.3132 17.7667 6.88643 17.3701 6.86647 16.8619L6.53848 8.51339Z" fill="white"/>
<path d="M10.0756 8.47788C10.0756 7.96737 10.4895 7.55352 11 7.55352C11.5105 7.55352 11.9244 7.96737 11.9244 8.47788V16.825C11.9244 17.3355 11.5105 17.7494 11 17.7494C10.4895 17.7494 10.0756 17.3355 10.0756 16.825V8.47788Z" fill="white"/>
<path d="M14.1787 17.7492C13.6667 17.7317 13.2666 17.3011 13.2867 16.7892L13.6147 8.44055C13.6347 7.9323 14.0615 7.53569 14.5699 7.55308C15.0819 7.5706 15.4819 8.00121 15.4618 8.51312L15.1338 16.8618C15.1138 17.37 14.687 17.7666 14.1787 17.7492Z" fill="white"/>
<path d="M21.1384 3.30288C21.6142 3.30288 22 3.68863 22 4.16449C22 4.64034 21.6142 5.0261 21.1384 5.0261H20.0736L18.5454 21.2139C18.5035 21.6588 18.1038 22 17.6247 22H4.40648C3.92734 22 3.52739 21.6585 3.48581 21.2136L1.95751 5.0261H0.86161C0.385756 5.0261 0 4.64034 0 4.16449C0 3.68863 0.385756 3.30288 0.861609 3.30288H21.1384ZM5.25317 20.2768H16.7782L18.2178 5.0261H3.81329L5.25317 20.2768Z" fill="white"/>
<path d="M7.98038 0H14.0196C14.8691 0 15.5602 0.644187 15.5602 1.43602V3.24013C15.5602 3.75064 15.1464 4.16449 14.6359 4.16449C14.1253 4.16449 13.7115 3.75064 13.7115 3.24013V1.72322H8.2885V3.24013C8.2885 3.75064 7.87465 4.16449 7.36414 4.16449C6.85363 4.16449 6.43978 3.75064 6.43978 3.24013V1.43602C6.43978 0.644187 7.13089 0 7.98038 0Z" fill="white"/>
</g>
</svg>
