<svg width="50" height="50" viewBox="0 0 50 50" fill="none" xmlns="http://www.w3.org/2000/svg">
<path opacity="0.15" d="M46 0H4C1.79086 0 0 1.79086 0 4V46C0 48.2091 1.79086 50 4 50H46C48.2091 50 50 48.2091 50 46V4C50 1.79086 48.2091 0 46 0Z" fill="#7CBCF6"/>
<path fill-rule="evenodd" clip-rule="evenodd" d="M34.6894 19.948C34.3107 19.354 33.6545 19 32.9343 19H19.7276L19.091 16.737C18.9682 16.302 18.5607 16 18.0953 16H16.0318C15.4612 16 15 16.448 15 17C15 17.552 15.4612 18 16.0318 18H17.3071L20.195 28.263C20.3178 28.698 20.7253 29 21.1907 29H30.4766C30.8677 29 31.2247 28.786 31.4001 28.447L34.7802 21.894C35.1031 21.269 35.068 20.542 34.6894 19.948ZM29.8401 27H21.98L20.291 21H32.9354L29.8401 27Z" fill="#7CBCF6"/>
<path d="M20.6736 31C19.8193 31 19.126 31.671 19.126 32.5C19.126 33.329 19.8193 34 20.6736 34C21.5279 34 22.2213 33.329 22.2213 32.5C22.2213 31.671 21.5279 31 20.6736 31Z" fill="#7CBCF6"/>
<path d="M29.4443 32.5C29.4443 31.671 30.1376 31 30.9919 31C31.8462 31 32.5396 31.671 32.5396 32.5C32.5396 33.329 31.8462 34 30.9919 34C30.1376 34 29.4443 33.329 29.4443 32.5Z" fill="#7CBCF6"/>
</svg>
