<svg width="46" height="46" viewBox="0 0 46 46" fill="none" xmlns="http://www.w3.org/2000/svg">
<path d="M23 45.25C35.2883 45.25 45.25 35.2883 45.25 23C45.25 10.7117 35.2883 0.75 23 0.75C10.7117 0.75 0.75 10.7117 0.75 23C0.75 35.2883 10.7117 45.25 23 45.25Z" stroke="#282730" stroke-width="1.5"/>
<path d="M23 41.25C33.0792 41.25 41.25 33.0792 41.25 23C41.25 12.9208 33.0792 4.75 23 4.75C12.9208 4.75 4.75 12.9208 4.75 23C4.75 33.0792 12.9208 41.25 23 41.25Z" stroke="#282730" stroke-width="1.5" stroke-dasharray="1.6 1.6"/>
<path d="M23 38C31.2843 38 38 31.2843 38 23C38 14.7157 31.2843 8 23 8C14.7157 8 8 14.7157 8 23C8 31.2843 14.7157 38 23 38Z" fill="#637DD9"/>
<path d="M16.0991 30L21.2991 15.4H23.6991L28.8991 30H26.5391L25.2791 26.12H19.6391L18.3791 30H16.0991ZM20.1791 24.4H24.7391L22.4791 17.4H22.4391L20.1791 24.4Z" fill="white"/>
</svg>
