<svg width="46" height="46" viewBox="0 0 46 46" fill="none" xmlns="http://www.w3.org/2000/svg">
<path d="M45.2581 38.5807H0.741943V43.0323H45.2581V38.5807Z" fill="#637DD9"/>
<path d="M36.3548 8.90326H24.4839C24.0736 8.90326 23.7419 8.57161 23.7419 8.16132V3.70971C23.7419 3.29942 24.0736 2.96777 24.4839 2.96777H36.3548C36.7651 2.96777 37.0968 3.29942 37.0968 3.70971V8.16132C37.0968 8.57161 36.7651 8.90326 36.3548 8.90326Z" fill="#637DD9"/>
<path d="M45.6394 35.0705L39.8701 16.3226H37.1747L37.0263 14.8387H32.6452V11.871H40.0645V0H20.7742V11.871H28.1935V14.8387H23.8124L23.664 16.3226H19.2903V6.2189L17.0645 7.33181L15.5806 6.58987L14.0968 7.33181L12.6129 6.58987L11.129 7.33181L8.90323 6.2189V16.3226H6.12987L0.360581 35.0705C0.121677 35.8496 0 36.6568 0 37.4707V43.0323C0 44.669 1.33103 46 2.96774 46H43.0323C44.669 46 46 44.669 46 43.0323V37.4707C46 36.6568 45.8783 35.8496 45.6394 35.0705ZM22.2581 1.48387H38.5806V10.3871H22.2581V1.48387ZM29.6774 11.871H31.1613V14.8387H29.6774V11.871ZM25.1553 16.3226H35.6826L36.2762 22.2581H24.5618L25.1553 16.3226ZM11.129 8.99077L12.6129 8.24884L14.0968 8.99077L15.5806 8.24884L17.0645 8.99077L17.8065 8.61981V21.5161H10.3871V8.61981L11.129 8.99077ZM44.5161 43.0323C44.5161 43.8506 43.8506 44.5161 43.0323 44.5161H2.96774C2.14939 44.5161 1.48387 43.8506 1.48387 43.0323V37.4707C1.48387 36.8052 1.58329 36.1441 1.77916 35.5068L7.22497 17.8065H8.90323V21.5161H7.41935V23H20.7742V21.5161H19.2903V17.8065H23.5156L22.9221 23.7419H37.9174L37.3238 17.8065H38.775L44.2208 35.5068C44.4167 36.1441 44.5161 36.8052 44.5161 37.4707V43.0323Z" fill="#282730"/>
<path d="M42.2904 35.6129H3.70972V37.0968H42.2904V35.6129Z" fill="#282730"/>
<path d="M28.1935 40.0646H17.8064V41.5484H28.1935V40.0646Z" fill="#282730"/>
<path d="M37.7045 25.2258H25.9678V34.1291H39.4858L37.7045 25.2258ZM36.9343 28.9355H34.871V26.7097H36.4892L36.9343 28.9355ZM31.1613 28.9355V26.7097H33.3871V28.9355H31.1613ZM33.3871 30.4194V32.6452H31.1613V30.4194H33.3871ZM29.6775 26.7097V28.9355H27.4516V26.7097H29.6775ZM27.4516 30.4194H29.6775V32.6452H27.4516V30.4194ZM34.871 32.6452V30.4194H37.2304L37.6755 32.6452H34.871Z" fill="#282730"/>
<path d="M20.0322 25.2258H8.29554L6.51489 34.1291H20.0322V25.2258ZM18.5483 28.9355H16.3225V26.7097H18.5483V28.9355ZM12.6129 28.9355V26.7097H14.8387V28.9355H12.6129ZM14.8387 30.4194V32.6452H12.6129V30.4194H14.8387ZM11.129 26.7097V28.9355H9.06567L9.51083 26.7097H11.129ZM8.76963 30.4194H11.129V32.6452H8.32447L8.76963 30.4194ZM16.3225 32.6452V30.4194H18.5483V32.6452H16.3225Z" fill="#282730"/>
<path d="M16.3225 10.3871H11.8708V11.871H16.3225V10.3871Z" fill="#282730"/>
<path d="M16.3225 13.3549H11.8708V14.8387H16.3225V13.3549Z" fill="#282730"/>
<path d="M16.3225 16.3226H11.8708V17.8065H16.3225V16.3226Z" fill="#282730"/>
<path d="M28.1936 18.5483H26.7097V20.0322H28.1936V18.5483Z" fill="#282730"/>
<path d="M34.1291 18.5483H32.6453V20.0322H34.1291V18.5483Z" fill="#282730"/>
<path d="M23.7419 32.6451H22.2581V34.129H23.7419V32.6451Z" fill="#282730"/>
<path d="M23.7419 28.9354H22.2581V30.4193H23.7419V28.9354Z" fill="#282730"/>
<path d="M23.7419 25.2258H22.2581V26.7097H23.7419V25.2258Z" fill="#282730"/>
</svg>
