<svg width="46" height="41" viewBox="0 0 46 41" fill="none" xmlns="http://www.w3.org/2000/svg">
<path d="M34.1289 0H11.8708V17.8065H34.1289V0Z" fill="#637DD9"/>
<path d="M42.2903 13.3549H34.129V14.8387H35.6129V17.8065H31.1613V19.2903H37.0968V14.8387H42.2903C43.5175 14.8387 44.5161 15.8374 44.5161 17.0645V35.6129H37.0968V31.7097H8.90323V35.6129H1.48387V17.0645C1.48387 15.8374 2.48252 14.8387 3.70968 14.8387H8.90323V19.2903H29.6774V17.8065H10.3871V14.8387H11.871V13.3549H3.70968C1.66416 13.3549 0 15.019 0 17.0645V36.3549C0 38.4004 1.66416 40.0645 3.70968 40.0645H34.5V38.5807H10.3871V33.1936H35.6129V38.5807H33.3871V40.0645H42.2903C44.3358 40.0645 46 38.4004 46 36.3549V17.0645C46 15.019 44.3358 13.3549 42.2903 13.3549ZM3.70968 38.5807C2.74368 38.5807 1.92755 37.9582 1.62039 37.0968H8.90323V38.5807H3.70968ZM42.2903 38.5807H37.0968V37.0968H44.3796C44.0725 37.9582 43.2563 38.5807 42.2903 38.5807Z" fill="#282730"/>
<path d="M13.4194 26C13.4194 27.2271 14.4181 28.2258 15.6452 28.2258C16.8724 28.2258 17.871 27.2271 17.871 26C17.871 24.7728 16.8724 23.7742 15.6452 23.7742C14.4181 23.7742 13.4194 24.7728 13.4194 26ZM16.3872 26C16.3872 26.4095 16.054 26.7419 15.6452 26.7419C15.2364 26.7419 14.9033 26.4095 14.9033 26C14.9033 25.5904 15.2364 25.258 15.6452 25.258C16.054 25.258 16.3872 25.5904 16.3872 26Z" fill="#282730"/>
<path d="M30.3228 26C30.3228 27.2271 31.3214 28.2258 32.5486 28.2258C33.7757 28.2258 34.7744 27.2271 34.7744 26C34.7744 24.7728 33.7757 23.7742 32.5486 23.7742C31.3214 23.7742 30.3228 24.7728 30.3228 26ZM33.2905 26C33.2905 26.4095 32.9574 26.7419 32.5486 26.7419C32.1398 26.7419 31.8066 26.4095 31.8066 26C31.8066 25.5904 32.1398 25.258 32.5486 25.258C32.9574 25.258 33.2905 25.5904 33.2905 26Z" fill="#282730"/>
<path d="M4.96777 26C4.96777 27.2271 5.96642 28.2258 7.19358 28.2258C8.42074 28.2258 9.41939 27.2271 9.41939 26C9.41939 24.7728 8.42074 23.7742 7.19358 23.7742C5.96642 23.7742 4.96777 24.7728 4.96777 26ZM7.93552 26C7.93552 26.4095 7.60239 26.7419 7.19358 26.7419C6.78477 26.7419 6.45164 26.4095 6.45164 26C6.45164 25.5904 6.78477 25.258 7.19358 25.258C7.60239 25.258 7.93552 25.5904 7.93552 26Z" fill="#282730"/>
<path d="M21.8711 26C21.8711 27.2271 22.8697 28.2258 24.0969 28.2258C25.3241 28.2258 26.3227 27.2271 26.3227 26C26.3227 24.7728 25.3241 23.7742 24.0969 23.7742C22.8697 23.7742 21.8711 24.7728 21.8711 26ZM24.8388 26C24.8388 26.4095 24.5057 26.7419 24.0969 26.7419C23.6881 26.7419 23.355 26.4095 23.355 26C23.355 25.5904 23.6881 25.258 24.0969 25.258C24.5057 25.258 24.8388 25.5904 24.8388 26Z" fill="#282730"/>
<path d="M43.0322 21H38.5806V31.3871H43.0322V21ZM41.5483 22.4839V23.9677H40.0644V22.4839H41.5483ZM41.5483 25.4516V26.9355H40.0644V25.4516H41.5483ZM40.0644 29.9032V28.4194H41.5483V29.9032H40.0644Z" fill="#282730"/>
<path d="M31.1612 2.96777H17.8064V4.45164H31.1612V2.96777Z" fill="white"/>
<path d="M31.1612 5.93542H14.8386V7.4193H31.1612V5.93542Z" fill="white"/>
<path d="M31.1612 8.9032H14.8386V10.3871H31.1612V8.9032Z" fill="white"/>
<path d="M31.1612 11.871H14.8386V13.3548H31.1612V11.871Z" fill="white"/>
<path d="M31.1612 14.8387H14.8386V16.3226H31.1612V14.8387Z" fill="white"/>
<path d="M16.3225 2.96777H14.8386V4.45164H16.3225V2.96777Z" fill="white"/>
<path d="M29.6776 35H16.3228V36.4839H29.6776V35Z" fill="#282730"/>
</svg>
