<svg width="46" height="46" viewBox="0 0 46 46" fill="none" xmlns="http://www.w3.org/2000/svg">
<g clip-path="url(#clip0)">
<path d="M25.3636 30.5228L15.4773 20.6364L29.7857 6.328L39.6721 16.2144L25.3636 30.5228Z" fill="#637DD9"/>
<path d="M39.3669 12.3288C39.3669 12.6059 39.3471 12.8859 39.3071 13.1608L40.7657 13.3724C40.8157 13.0273 40.8409 12.6768 40.8409 12.3288C40.8409 12.1269 40.8326 11.9272 40.8157 11.7296L39.3478 11.8556C39.36 12.011 39.3669 12.169 39.3669 12.3288Z" fill="#282730"/>
<path d="M34.2691 5.18359L34.1467 6.65222C36.4269 6.84188 38.3648 8.37096 39.0824 10.5489L40.4812 10.0868C39.5786 7.34641 37.1398 5.42147 34.2691 5.18359Z" fill="#282730"/>
<path d="M12.0975 41.578L15.3507 38.3248L12.0975 35.0715L8.84424 38.3248L12.0975 41.578ZM13.2663 38.3248L12.0975 39.4936L10.9286 38.3248L12.0975 37.1559L13.2663 38.3248Z" fill="#282730"/>
<path d="M7.67535 30.6494L4.42212 33.9026L7.67535 37.1559L10.9286 33.9026L7.67535 30.6494ZM6.50649 33.9026L7.67535 32.7338L8.8442 33.9026L7.67535 35.0715L6.50649 33.9026Z" fill="#282730"/>
<path d="M17.2565 29.4805C17.2565 29.8876 16.9265 30.2176 16.5195 30.2176C16.1125 30.2176 15.7825 29.8876 15.7825 29.4805C15.7825 29.0735 16.1125 28.7435 16.5195 28.7435C16.9265 28.7435 17.2565 29.0735 17.2565 29.4805Z" fill="#282730"/>
<path d="M46 3.68507C46 1.65324 44.3468 0 42.315 0C40.3368 0 38.7292 1.57047 38.6454 3.52889C37.1749 2.69363 35.48 2.21104 33.6713 2.21104C30.9686 2.21104 28.4279 3.26366 26.517 5.17457L6.66264 25.0283L7.766 26.1367L0 33.9026L12.0974 46L19.8368 38.2607L20.9401 39.3684L40.8255 19.483C42.7364 17.5717 43.789 15.0314 43.789 12.3288C43.789 10.5201 43.3061 8.8251 42.4712 7.35395C44.4296 7.27082 46 5.66328 46 3.68507ZM12.0974 43.9157L2.08437 33.9026L8.80602 27.181L18.7967 37.2163L12.0974 43.9157ZM11.2211 27.5171L15.5946 25.9128L20.0851 30.404L18.452 34.7789L11.2211 27.5171ZM39.7833 18.4408L20.943 37.2811L19.5957 35.928L21.7981 30.0312L15.9703 24.2041L10.0764 26.3673L8.74628 25.0311L27.5592 6.21676C29.1916 4.58439 31.363 3.68507 33.6713 3.68507C38.4374 3.68507 42.315 7.56267 42.315 12.3288C42.315 14.637 41.4157 16.8085 39.7833 18.4408ZM42.315 5.89611C41.9184 5.89611 41.5294 5.78275 41.1814 5.57331C40.9435 5.3088 40.6912 5.05654 40.4267 4.81866C40.2173 4.47067 40.1039 4.08093 40.1039 3.68507C40.1039 2.46619 41.0957 1.47403 42.315 1.47403C43.5339 1.47403 44.526 2.46619 44.526 3.68507C44.526 4.90395 43.5339 5.89611 42.315 5.89611Z" fill="#282730"/>
<path d="M31.2597 12.5293C30.0405 12.5293 29.0487 13.5215 29.0487 14.7403C29.0487 15.0808 29.1318 15.3993 29.2703 15.6875L23.8896 21.0683V18.4254H22.4155V23.5845H27.5746V22.1105H24.9317L30.3125 16.7297C30.6008 16.8683 30.9193 16.9514 31.2597 16.9514C32.4786 16.9514 33.4707 15.9592 33.4707 14.7403C33.4707 13.5215 32.4786 12.5293 31.2597 12.5293ZM31.2597 15.4774C30.8527 15.4774 30.5227 15.1463 30.5227 14.7403C30.5227 14.3344 30.8527 14.0033 31.2597 14.0033C31.6664 14.0033 31.9967 14.3344 31.9967 14.7403C31.9967 15.1463 31.6664 15.4774 31.2597 15.4774Z" fill="white"/>
</g>
<defs>
<clipPath id="clip0">
<rect width="46" height="46" fill="white"/>
</clipPath>
</defs>
</svg>
