<svg width="46" height="46" viewBox="0 0 46 46" fill="none" xmlns="http://www.w3.org/2000/svg">
<path d="M27.0002 3H38.5002V25H27.0002V3Z" fill="#637DD9"/>
<path d="M16.3227 14.0969C15.0932 14.0969 14.0969 13.1006 14.0969 11.8711V10.3872C14.0969 9.15763 15.0932 8.16138 16.3227 8.16138C17.5523 8.16138 18.5485 9.15763 18.5485 10.3872V11.8711C18.5485 13.1006 17.5523 14.0969 16.3227 14.0969Z" fill="#637DD9"/>
<path d="M16.3227 14.0968C13.4542 14.0968 11.1292 16.4219 11.1292 19.2903V19.2969C12.1877 20.7105 13.4995 21.9458 15.0341 22.9221L16.3227 23.742L17.6113 22.9214C19.1452 21.9458 20.4577 20.7097 21.5162 19.2961V19.2903C21.5162 16.4219 19.1912 14.0968 16.3227 14.0968Z" fill="#637DD9"/>
<path d="M14.6356 23.5474L16.3227 24.6219L18.0098 23.5481C22.528 20.6724 25.2259 15.7578 25.2259 10.4027V8.49603L16.3227 2.82971L7.41943 8.49603V10.4027C7.41943 15.7578 10.1173 20.6724 14.6356 23.5474ZM8.9033 9.31042L16.3227 4.58964L23.742 9.31042V10.4027C23.742 15.2481 21.301 19.6939 17.2139 22.2957L16.3227 22.8627L15.4322 22.2957C11.3443 19.6946 8.9033 15.2481 8.9033 10.4027V9.31042Z" fill="#282730"/>
<path d="M2.96777 37.0968H4.45164V38.5807H2.96777V37.0968Z" fill="#282730"/>
<path d="M5.93555 37.0968H7.41942V38.5807H5.93555V37.0968Z" fill="#282730"/>
<path d="M8.90332 37.0968H10.3872V38.5807H8.90332V37.0968Z" fill="#282730"/>
<path d="M42.2903 8.90323H41.5484V0H4.45161V8.90323H3.70968C1.66428 8.90323 0 10.5675 0 12.6129V37.8387C0 39.8841 1.66428 41.5484 3.70968 41.5484H13.3548V44.5161H10.3871V46H35.6129V44.5161H32.6452V41.5484H42.2903C44.3357 41.5484 46 39.8841 46 37.8387V12.6129C46 10.5675 44.3357 8.90323 42.2903 8.90323ZM3.70968 10.3871H5.93548V1.48387H40.0645V26.7097H5.93548V11.871H4.45161V28.1935H41.5484V10.3871H42.2903C43.5173 10.3871 44.5161 11.3859 44.5161 12.6129V35.6129H13.662L12.1782 34.129H1.48387V12.6129C1.48387 11.3859 2.48266 10.3871 3.70968 10.3871ZM42.2903 40.0645H16.3226V41.5484H31.1613V44.5161H14.8387V40.0645H3.70968C2.48266 40.0645 1.48387 39.0657 1.48387 37.8387V35.6129H11.5638L13.0476 37.0968H44.5161V37.8387C44.5161 39.0657 43.5173 40.0645 42.2903 40.0645Z" fill="#282730"/>
<path d="M28.7095 5.93542H36.5795V7.4193H28.7095V5.93542Z" fill="white"/>
<path d="M31.6772 8.9032H36.5772V10.3871H31.6772V8.9032Z" fill="white"/>
<path d="M28.7095 8.9032H30.1933V10.3871H28.7095V8.9032Z" fill="white"/>
<path d="M28.7095 11.871H36.5795V13.3548H28.7095V11.871Z" fill="white"/>
<path d="M28.7095 14.8387H36.5795V16.3226H28.7095V14.8387Z" fill="white"/>
<path d="M35.0967 17.8064H36.5805V19.2903H35.0967V17.8064Z" fill="white"/>
<path d="M28.7095 17.8064H33.6095V19.2903H28.7095V17.8064Z" fill="white"/>
<path d="M31.9033 20.7419H33.3872V22.2258H31.9033V20.7419Z" fill="white"/>
<path d="M28.9355 20.7419H30.4194V22.2258H28.9355V20.7419Z" fill="white"/>
<path d="M34.8711 20.7419H36.355V22.2258H34.8711V20.7419Z" fill="white"/>
</svg>
